<svg xmlns="http://www.w3.org/2000/svg" width="66" height="46" fill="none"><path fill="#145DFF" d="M56.45 33.688c0 1.926-1.364 3.313-3.19 3.313-1.827 0-3.19-1.387-3.19-3.313 0-1.926 1.365-3.31 3.19-3.31 1.824 0 3.19 1.411 3.19 3.31Zm-16.957-3.31c-1.754 0-3.02 1.387-3.02 3.31s1.266 3.313 3.02 3.313c1.68 0 2.899-1.387 2.899-3.313 0-1.926-1.219-3.31-2.899-3.31Zm-26.966 0c-1.754 0-3.02 1.411-3.02 3.31s1.266 3.313 3.02 3.313c1.68 0 2.897-1.365 2.897-3.313 0-1.899-1.217-3.31-2.897-3.31ZM55.02 45.27H10.962c-9.498 0-14.485-11.274-8.095-18.301L23.63 4.14a12.655 12.655 0 0 1 18.725 0l20.759 22.83c6.392 7.027 1.405 18.301-8.093 18.301Zm-36.333-17.67h-3.19v1.486c-.875-1.17-2.387-1.73-3.799-1.73-3.36 0-5.502 2.824-5.502 6.331 0 3.507 2.142 6.333 5.502 6.333 1.412 0 2.946-.536 3.8-1.705v1.467h3.189V27.6Zm4.98 0H20.4v12.182h3.266V27.6Zm.292-3.41a1.957 1.957 0 0 0-1.948-1.949 1.95 1.95 0 0 0-1.925 1.948 1.945 1.945 0 0 0 1.925 1.926 1.95 1.95 0 0 0 1.948-1.926Zm8.604 3.177c-2.477.106-3.658 1.608-3.986 2.57V27.6h-3.205v12.183h3.263v-4.676c0-2.8 1.3-4.095 3.937-4.18l-.009-3.559Zm13.081.225h-3.083v1.462c-.901-1.169-2.435-1.705-3.897-1.705-3.36 0-5.502 2.824-5.502 6.306 0 3.532 2.192 6.359 5.552 6.359a4.73 4.73 0 0 0 3.678-1.633v4.477l3.261-.815-.009-14.45Zm14.133 6.082c0-3.53-2.871-6.332-6.531-6.332-3.494 0-6.5 2.802-6.5 6.332 0 3.529 2.871 6.333 6.5 6.333 3.628 0 6.531-2.802 6.531-6.334Z"/></svg>